<svg width="139" height="39" viewBox="0 0 139 39" fill="none" xmlns="http://www.w3.org/2000/svg">
<g clip-path="url(#clip0_431_1346)">
<path d="M26.1504 22.3694V29.3975H0V23.8513L13.1209 9.54762H0.365276V2.56677H25.615V8.06969L12.4941 22.3694H26.1504Z" fill="#303030"/>
<path d="M100.036 2.56677V29.3975H90.5927V26.5281C89.5534 27.6135 88.2656 28.4592 86.8278 29.0005C85.3532 29.5634 83.777 29.8491 82.1872 29.8416C78.5289 29.8416 75.6108 28.8183 73.433 26.7718C71.2552 24.7252 70.1607 21.6567 70.1497 17.5662V2.56677H80.0827V16.0332C80.0827 18.0457 80.4825 19.5132 81.2823 20.4355C82.0834 21.3632 83.2498 21.8231 84.7856 21.8231C85.5087 21.8433 86.2278 21.713 86.8919 21.4413C87.5561 21.1696 88.1491 20.7632 88.6293 20.2508C89.62 19.2026 90.1167 17.6107 90.1195 15.4751V2.56677H100.036Z" fill="#303030"/>
<path d="M139 2.56673V39H129.067V27.0194C127.149 28.9035 124.52 29.8442 121.18 29.8416C118.719 29.8695 116.293 29.281 114.149 28.1357C112.034 26.9903 110.296 25.3111 109.13 23.2852C107.856 21.0437 107.216 18.5274 107.275 15.9821C107.217 13.4368 107.856 10.9206 109.13 8.6789C110.296 6.65307 112.034 4.97382 114.149 3.82847C116.291 2.68449 118.713 2.09604 121.172 2.12256C124.9 2.12256 127.688 3.16157 129.536 5.23958V2.56673H139ZM127.552 20.6478C128.659 19.5079 129.212 17.9487 129.212 15.9703C129.212 13.9918 128.659 12.4327 127.552 11.2928C126.994 10.7515 126.327 10.3214 125.59 10.0278C124.854 9.73416 124.063 9.58289 123.264 9.58289C122.465 9.58289 121.674 9.73416 120.938 10.0278C120.201 10.3214 119.535 10.7515 118.976 11.2928C117.869 12.4327 117.316 13.9918 117.316 15.9703C117.316 17.9487 117.869 19.5079 118.976 20.6478C119.535 21.189 120.201 21.6191 120.938 21.9128C121.674 22.2064 122.465 22.3577 123.264 22.3577C124.063 22.3577 124.854 22.2064 125.59 21.9128C126.327 21.6191 126.994 21.189 127.552 20.6478Z" fill="#303030"/>
<path d="M47.2535 24.3701C52.1822 24.3701 56.1778 20.5865 56.1778 15.9192C56.1778 11.2519 52.1822 7.46826 47.2535 7.46826C42.3247 7.46826 38.3291 11.2519 38.3291 15.9192C38.3291 20.5865 42.3247 24.3701 47.2535 24.3701Z" fill="url(#paint0_linear_431_1346)"/>
<path d="M47.2534 31.0522C56.0794 31.0522 63.2342 24.2769 63.2342 15.9192C63.2342 7.56142 56.0794 0.786133 47.2534 0.786133C38.4274 0.786133 31.2726 7.56142 31.2726 15.9192C31.2726 24.2769 38.4274 31.0522 47.2534 31.0522Z" stroke="url(#paint1_linear_431_1346)" stroke-width="4" stroke-miterlimit="10"/>
</g>
<defs>
<linearGradient id="paint0_linear_431_1346" x1="38.3291" y1="15.9192" x2="56.1778" y2="15.9192" gradientUnits="userSpaceOnUse">
<stop stop-color="#209CFF"/>
<stop offset="1" stop-color="#68E0CF"/>
</linearGradient>
<linearGradient id="paint1_linear_431_1346" x1="30.4424" y1="1.53328e-06" x2="64.0644" y2="1.53328e-06" gradientUnits="userSpaceOnUse">
<stop stop-color="#209CFF"/>
<stop offset="1" stop-color="#68E0CF"/>
</linearGradient>
<clipPath id="clip0_431_1346">
<rect width="139" height="39" fill="white"/>
</clipPath>
</defs>
</svg>
