<svg width="169" height="52" viewBox="0 0 169 52" fill="none" xmlns="http://www.w3.org/2000/svg">
<path d="M31.7944 30.2523V39.4427H0V32.1901L15.9527 13.4853H0.444113V4.35648H31.1434V11.5526L15.1907 30.2523H31.7944Z" fill="#303030"/>
<path d="M121.626 4.35648V39.4427H110.145V35.6905C108.881 37.1099 107.316 38.2158 105.568 38.9236C103.775 39.6597 101.858 40.0333 99.9253 40.0236C95.4775 40.0236 91.9296 38.6854 89.2818 36.0092C86.6339 33.3329 85.3033 29.3202 85.2898 23.9711V4.35648H97.3666V21.9664C97.3666 24.5982 97.8528 26.5171 98.8251 27.7233C99.7992 28.9364 101.217 29.5378 103.085 29.5378C103.964 29.5642 104.838 29.3938 105.645 29.0385C106.453 28.6833 107.174 28.1519 107.758 27.4818C108.962 26.1111 109.566 24.0293 109.57 21.2365V4.35648H121.626Z" fill="#303030"/>
<path d="M169 4.35649V52H156.923V36.333C154.592 38.7968 151.395 40.027 147.334 40.0236C144.341 40.0601 141.392 39.2905 138.785 37.7928C136.214 36.295 134.101 34.0991 132.684 31.4499C131.134 28.5187 130.356 25.2282 130.428 21.8996C130.357 18.5712 131.134 15.2808 132.684 12.3493C134.101 9.70017 136.214 7.50422 138.785 6.00646C141.389 4.51049 144.335 3.74098 147.324 3.77566C151.856 3.77566 155.246 5.13436 157.493 7.85175V4.35649H169ZM155.081 28.0009C156.427 26.5103 157.1 24.4714 157.1 21.8842C157.1 19.297 156.427 17.2581 155.081 15.7675C154.402 15.0597 153.591 14.4973 152.696 14.1133C151.801 13.7293 150.839 13.5315 149.868 13.5315C148.896 13.5315 147.935 13.7293 147.039 14.1133C146.144 14.4973 145.333 15.0597 144.655 15.7675C143.309 17.2581 142.636 19.297 142.636 21.8842C142.636 24.4714 143.309 26.5103 144.655 28.0009C145.333 28.7087 146.144 29.2711 147.039 29.6551C147.935 30.0391 148.896 30.2369 149.868 30.2369C150.839 30.2369 151.801 30.0391 152.696 29.6551C153.591 29.2711 154.402 28.7087 155.081 28.0009Z" fill="#303030"/>
<path d="M57.452 32.8686C63.4446 32.8686 68.3025 27.9208 68.3025 21.8174C68.3025 15.714 63.4446 10.7662 57.452 10.7662C51.4595 10.7662 46.6016 15.714 46.6016 21.8174C46.6016 27.9208 51.4595 32.8686 57.452 32.8686Z" fill="url(#paint0_linear_1_517)"/>
<path d="M57.452 41.6067C68.1829 41.6067 76.8819 32.7467 76.8819 21.8174C76.8819 10.888 68.1829 2.02802 57.452 2.02802C46.7212 2.02802 38.0221 10.888 38.0221 21.8174C38.0221 32.7467 46.7212 41.6067 57.452 41.6067Z" stroke="url(#paint1_linear_1_517)" stroke-width="4" stroke-miterlimit="10"/>
<defs>
<linearGradient id="paint0_linear_1_517" x1="46.6016" y1="21.8174" x2="68.3025" y2="21.8174" gradientUnits="userSpaceOnUse">
<stop stop-color="#209CFF"/>
<stop offset="1" stop-color="#68E0CF"/>
</linearGradient>
<linearGradient id="paint1_linear_1_517" x1="37.0127" y1="0.999997" x2="77.8913" y2="0.999997" gradientUnits="userSpaceOnUse">
<stop stop-color="#209CFF"/>
<stop offset="1" stop-color="#68E0CF"/>
</linearGradient>
</defs>
</svg>
