<svg width="117" height="35" viewBox="0 0 117 35" fill="none" xmlns="http://www.w3.org/2000/svg">
<path d="M22.0115 20.9279V26.8746H0V22.1817L11.0442 10.0786H0.307463V4.17175H21.5608V8.82807L10.5166 20.9279H22.0115Z" fill="#303030"/>
<path d="M84.2028 4.17175V26.8746H76.2542V24.4467C75.3795 25.3651 74.2954 26.0807 73.0852 26.5387C71.844 27.015 70.5173 27.2568 69.1791 27.2505C66.0998 27.2505 63.6436 26.3846 61.8105 24.6529C59.9773 22.9212 59.0561 20.3247 59.0468 16.8635V4.17175H67.4077V15.5664C67.4077 17.2693 67.7443 18.511 68.4174 19.2915C69.0917 20.0764 70.0735 20.4655 71.3663 20.4655C71.9749 20.4827 72.5802 20.3724 73.1392 20.1425C73.6982 19.9126 74.1974 19.5688 74.6016 19.1352C75.4355 18.2482 75.8536 16.9012 75.8559 15.0941V4.17175H84.2028Z" fill="#303030"/>
<path d="M117 4.17185V35H108.639V24.8625C107.025 26.4568 104.812 27.2528 102.001 27.2506C99.9287 27.2742 97.8869 26.7762 96.0821 25.8071C94.3018 24.838 92.8394 23.4171 91.8579 21.7029C90.7849 19.8062 90.2468 17.677 90.2962 15.5233C90.2473 13.3696 90.7853 11.2405 91.8579 9.34369C92.8394 7.62952 94.3018 6.20861 96.0821 5.23947C97.8849 4.27149 99.9241 3.77358 101.994 3.79601C105.131 3.79601 107.478 4.67517 109.034 6.43349V4.17185H117ZM107.364 19.4712C108.296 18.5067 108.761 17.1874 108.761 15.5133C108.761 13.8393 108.296 12.52 107.364 11.5554C106.894 11.0975 106.333 10.7335 105.713 10.4851C105.093 10.2366 104.427 10.1086 103.755 10.1086C103.082 10.1086 102.416 10.2366 101.797 10.4851C101.177 10.7335 100.615 11.0975 100.145 11.5554C99.2138 12.52 98.7479 13.8393 98.7479 15.5133C98.7479 17.1874 99.2138 18.5067 100.145 19.4712C100.615 19.9292 101.177 20.2931 101.797 20.5416C102.416 20.79 103.082 20.918 103.755 20.918C104.427 20.918 105.093 20.79 105.713 20.5416C106.333 20.2931 106.894 19.9292 107.364 19.4712Z" fill="#303030"/>
<path d="M39.7745 22.6208C43.9232 22.6208 47.2863 19.4193 47.2863 15.47C47.2863 11.5207 43.9232 8.31921 39.7745 8.31921C35.6258 8.31921 32.2626 11.5207 32.2626 15.47C32.2626 19.4193 35.6258 22.6208 39.7745 22.6208Z" fill="url(#paint0_linear_431_1635)"/>
<path d="M39.7745 28.2749C47.2035 28.2749 53.226 22.542 53.226 15.47C53.226 8.3981 47.2035 2.66516 39.7745 2.66516C32.3454 2.66516 26.323 8.3981 26.323 15.47C26.323 22.542 32.3454 28.2749 39.7745 28.2749Z" stroke="url(#paint1_linear_431_1635)" stroke-width="4" stroke-miterlimit="10"/>
<defs>
<linearGradient id="paint0_linear_431_1635" x1="32.2626" y1="15.47" x2="47.2863" y2="15.47" gradientUnits="userSpaceOnUse">
<stop stop-color="#209CFF"/>
<stop offset="1" stop-color="#68E0CF"/>
</linearGradient>
<linearGradient id="paint1_linear_431_1635" x1="25.6242" y1="1.99997" x2="53.9248" y2="1.99997" gradientUnits="userSpaceOnUse">
<stop stop-color="#209CFF"/>
<stop offset="1" stop-color="#68E0CF"/>
</linearGradient>
</defs>
</svg>
