<svg width="133" height="132" viewBox="0 0 133 132" fill="none" xmlns="http://www.w3.org/2000/svg">
<g clip-path="url(#clip0_355_463)">
<path d="M95.1626 81.1251H80.1172C77.7394 81.1251 75.8125 79.1982 75.8125 76.8204C75.8125 74.4426 77.7394 72.5157 80.1172 72.5157H95.1626C97.5404 72.5157 99.4673 74.4426 99.4673 76.8204C99.4673 79.1984 97.5404 81.1251 95.1626 81.1251Z" fill="#FFC033"/>
<path d="M55.7666 56.7752C53.3888 56.7752 51.4619 54.8483 51.4619 52.4705V37.4251C51.4619 35.0473 53.3888 33.1204 55.7666 33.1204C58.1444 33.1204 60.0713 35.0473 60.0713 37.4251V52.4705C60.0713 54.8483 58.1444 56.7752 55.7666 56.7752Z" fill="#FFC033"/>
<path d="M62.6344 3.78804C57.6122 -1.26276 49.405 -1.26276 44.3829 3.78804C39.3607 8.81023 39.3607 17.0177 44.3829 22.0399C46.822 24.4793 50.065 25.8279 53.5084 25.8279C56.9517 25.8279 60.1953 24.479 62.6342 22.0399C67.6857 17.0179 67.6857 8.81023 62.6344 3.78804ZM56.5637 15.9351C54.8157 17.6831 52.1337 17.613 50.4711 15.9532C48.8232 14.3052 48.8232 11.5224 50.4711 9.87448C52.1634 8.1755 54.8802 8.20128 56.5302 9.85746C58.2828 11.6018 58.1887 14.3205 56.5637 15.9351Z" fill="#3842A7"/>
<path d="M110.557 56.776C112.934 56.776 114.861 54.8487 114.861 52.4713C114.861 50.0939 112.934 48.1666 110.557 48.1666C108.179 48.1666 106.252 50.0939 106.252 52.4713C106.252 54.8487 108.179 56.776 110.557 56.776Z" fill="#43BFBF"/>
<path d="M80.1162 26.3361C82.4936 26.3361 84.4209 24.4088 84.4209 22.0314C84.4209 19.6539 82.4936 17.7267 80.1162 17.7267C77.7388 17.7267 75.8115 19.6539 75.8115 22.0314C75.8115 24.4088 77.7388 26.3361 80.1162 26.3361Z" fill="#36D9D9"/>
<path d="M110.557 105.477C112.934 105.477 114.861 103.549 114.861 101.172C114.861 98.7944 112.934 96.8671 110.557 96.8671C108.179 96.8671 106.252 98.7944 106.252 101.172C106.252 103.549 108.179 105.477 110.557 105.477Z" fill="#43BFBF"/>
<path d="M31.416 26.3361C33.7934 26.3361 35.7207 24.4088 35.7207 22.0314C35.7207 19.6539 33.7934 17.7267 31.416 17.7267C29.0386 17.7267 27.1113 19.6539 27.1113 22.0314C27.1113 24.4088 29.0386 26.3361 31.416 26.3361Z" fill="#36D9D9"/>
<path d="M114.861 13.4215C112.484 13.4215 110.557 11.4946 110.557 9.11676V4.81207C110.557 2.43426 112.484 0.50737 114.861 0.50737C117.239 0.50737 119.166 2.43426 119.166 4.81207V9.11676C119.166 11.4946 117.239 13.4215 114.861 13.4215Z" fill="#FFC033"/>
<path d="M114.861 34.9449C112.484 34.9449 110.557 33.018 110.557 30.6402V26.3355C110.557 23.9577 112.484 22.0309 114.861 22.0309C117.239 22.0309 119.166 23.9577 119.166 26.3355V30.6402C119.166 33.018 117.239 34.9449 114.861 34.9449Z" fill="#3842A7"/>
<path d="M106.252 22.0309H101.947C99.5695 22.0309 97.6426 20.104 97.6426 17.7262C97.6426 15.3484 99.5695 13.4215 101.947 13.4215H106.252C108.63 13.4215 110.557 15.3484 110.557 17.7262C110.557 20.104 108.63 22.0309 106.252 22.0309Z" fill="#FFC033"/>
<path d="M127.775 22.0309H123.471C121.093 22.0309 119.166 20.104 119.166 17.7262C119.166 15.3484 121.093 13.4215 123.471 13.4215H127.775C130.152 13.4215 132.08 15.3484 132.08 17.7262C132.08 20.104 130.152 22.0309 127.775 22.0309Z" fill="#3842A7"/>
<path d="M128.639 66.9237C123.617 61.8729 115.41 61.8729 110.388 66.9237C105.366 71.9459 105.366 80.1534 110.388 85.1756C112.827 87.615 116.07 88.9636 119.514 88.9636C122.957 88.9636 126.2 87.6147 128.639 85.1756C133.69 80.1534 133.69 71.9457 128.639 66.9237ZM122.569 79.0693C120.828 80.8129 118.147 80.7567 116.476 79.0889C114.828 77.4409 114.828 74.6581 116.476 73.0102C118.168 71.3112 120.885 71.337 122.535 72.9932C124.28 74.7324 124.201 77.4471 122.569 79.0693Z" fill="#3842A7"/>
<path d="M69.7255 67.1671C68.6241 67.1671 67.5227 66.7466 66.682 65.9059C65.0005 64.226 65.0005 61.4991 66.682 59.8187L93.5543 32.9464C95.2358 31.2649 97.9601 31.2649 99.6415 32.9464C101.323 34.6263 101.323 37.3532 99.6415 39.0336L72.7692 65.9056C71.9282 66.7466 70.8268 67.1671 69.7255 67.1671Z" fill="#FFC033"/>
<path d="M66.6816 65.9056C67.5224 66.7464 68.624 67.1669 69.7251 67.1669C70.8262 67.1669 71.9279 66.7464 72.7686 65.9056L99.6409 39.0333C101.322 37.3534 101.322 34.6265 99.6409 32.9461L66.6816 65.9056Z" fill="#3842A7"/>
<path d="M33.9951 109.847V122.001L6.3158 131.747C4.61398 132.346 2.94671 131.83 1.85049 130.739C0.745503 129.64 0.223433 127.964 0.825941 126.254L10.5834 98.6061H22.7655L28.3701 104.217L33.9951 109.847Z" fill="url(#paint0_linear_355_463)"/>
<path d="M33.9952 109.847V122.001L6.3159 131.747C4.61408 132.346 2.9468 131.83 1.85059 130.739L28.3705 104.217L33.9952 109.847Z" fill="url(#paint1_linear_355_463)"/>
<path d="M21.7109 82.3363L50.2815 110.918H65.4228L81.5464 105.235C83.7909 104.43 84.9606 101.991 84.1864 99.7255L32.8461 48.4136C30.6135 47.612 28.1408 48.7833 27.3648 51.0252L21.7109 67.0436V82.3366V82.3363Z" fill="url(#paint2_linear_355_463)"/>
<path d="M50.2814 110.918H65.4228L81.5464 105.235C83.7909 104.43 84.9606 101.991 84.1864 99.7255L58.5173 74.0703L35.9785 96.6091L50.2814 110.918Z" fill="url(#paint3_linear_355_463)"/>
<path d="M21.6827 67.0957L10.5771 98.6063L33.9945 121.995L34.0806 121.966L65.476 110.889L21.6827 67.0957Z" fill="#3881C3"/>
<path d="M33.9942 121.995L34.0803 121.966L65.4754 110.889L43.5874 89.0007L22.2861 110.301L33.9942 121.995Z" fill="#3881C3"/>
<path d="M86.2066 111.565C85.1052 111.565 84.0038 111.144 83.1631 110.304L22.2845 49.4258C20.6031 47.7459 20.6031 45.019 22.2845 43.3385C23.966 41.6571 26.6903 41.6571 28.3717 43.3385L89.2498 104.217C90.9312 105.896 90.9312 108.623 89.2498 110.304C88.409 111.144 87.3079 111.565 86.2066 111.565Z" fill="#36D9D9"/>
<path d="M83.1628 110.304C84.0035 111.144 85.1051 111.565 86.2063 111.565C87.3074 111.565 88.409 111.144 89.2497 110.304C90.9312 108.624 90.9312 105.897 89.2497 104.216L58.8108 73.7777L52.7236 79.8649L83.1628 110.304Z" fill="#43BFBF"/>
</g>
<defs>
<linearGradient id="paint0_linear_355_463" x1="-13.5549" y1="74.1715" x2="61.4272" y2="90.965" gradientUnits="userSpaceOnUse">
<stop stop-color="#209CFF"/>
<stop offset="0.473958" stop-color="#94C2E7"/>
<stop offset="1" stop-color="#68E0CF"/>
</linearGradient>
<linearGradient id="paint1_linear_355_463" x1="17.8665" y1="100.666" x2="17.8665" y2="132" gradientUnits="userSpaceOnUse">
<stop stop-color="#0F9FBB"/>
<stop offset="1" stop-color="#131B6C"/>
</linearGradient>
<linearGradient id="paint2_linear_355_463" x1="-4.79707" y1="2.24183" x2="135.919" y2="33.7089" gradientUnits="userSpaceOnUse">
<stop stop-color="#209CFF"/>
<stop offset="0.473958" stop-color="#94C2E7"/>
<stop offset="1" stop-color="#68E0CF"/>
</linearGradient>
<linearGradient id="paint3_linear_355_463" x1="60.1168" y1="69.362" x2="60.1168" y2="110.918" gradientUnits="userSpaceOnUse">
<stop stop-color="#0F9FBB"/>
<stop offset="1" stop-color="#131B6C"/>
</linearGradient>
<clipPath id="clip0_355_463">
<rect width="132" height="132" fill="white" transform="translate(0.5)"/>
</clipPath>
</defs>
</svg>
