<svg width="116" height="32" viewBox="0 0 116 32" fill="none" xmlns="http://www.w3.org/2000/svg">
<path d="M21.8234 18.944V24.4614H0V20.1074L10.9498 8.87818H0.304835V3.39783H21.3765V7.71793L10.4267 18.944H21.8234Z" fill="white"/>
<path d="M83.4831 3.39783V24.4614H75.6025V22.2088C74.7352 23.0609 73.6604 23.7248 72.4606 24.1497C71.23 24.5917 69.9146 24.8159 68.5878 24.8101C65.5348 24.8101 63.0996 24.0068 61.2822 22.4001C59.4647 20.7934 58.5514 18.3845 58.5421 15.1732V3.39783H66.8315V13.9697C66.8315 15.5496 67.1652 16.7017 67.8326 17.4258C68.5012 18.154 69.4746 18.5151 70.7563 18.5151C71.3598 18.531 71.9598 18.4286 72.5141 18.2154C73.0683 18.0021 73.5633 17.6831 73.964 17.2808C74.7907 16.4579 75.2053 15.2082 75.2076 13.5315V3.39783H83.4831Z" fill="white"/>
<path d="M116 3.39783V32H107.71V22.5945C106.11 24.0736 103.916 24.8121 101.129 24.8101C99.0745 24.832 97.0502 24.37 95.2608 23.4709C93.4957 22.5717 92.0458 21.2534 91.0728 19.663C90.0089 17.9033 89.4754 15.9279 89.5243 13.9296C89.4758 11.9314 90.0093 9.95611 91.0728 8.19622C92.0458 6.60583 93.4957 5.28753 95.2608 4.38837C97.0481 3.49028 99.0699 3.02832 101.122 3.04914C104.233 3.04914 106.559 3.86481 108.102 5.49616V3.39783H116ZM106.446 17.5924C107.37 16.6976 107.832 15.4735 107.832 13.9204C107.832 12.3672 107.37 11.1431 106.446 10.2483C105.98 9.82336 105.424 9.48571 104.809 9.25518C104.195 9.02466 103.535 8.9059 102.868 8.9059C102.201 8.9059 101.541 9.02466 100.926 9.25518C100.312 9.48571 99.7553 9.82336 99.2894 10.2483C98.3657 11.1431 97.9038 12.3672 97.9038 13.9204C97.9038 15.4735 98.3657 16.6976 99.2894 17.5924C99.7553 18.0174 100.312 18.355 100.926 18.5855C101.541 18.8161 102.201 18.9348 102.868 18.9348C103.535 18.9348 104.195 18.8161 104.809 18.5855C105.424 18.355 105.98 18.0174 106.446 17.5924Z" fill="white"/>
<path d="M39.4345 20.5147C43.5477 20.5147 46.8822 17.5444 46.8822 13.8803C46.8822 10.2162 43.5477 7.24585 39.4345 7.24585C35.3213 7.24585 31.9868 10.2162 31.9868 13.8803C31.9868 17.5444 35.3213 20.5147 39.4345 20.5147Z" fill="url(#paint0_linear_675_1210)"/>
<path d="M39.4345 25.7605C46.8001 25.7605 52.7711 20.4416 52.7711 13.8803C52.7711 7.31898 46.8001 2 39.4345 2C32.069 2 26.098 7.31898 26.098 13.8803C26.098 20.4416 32.069 25.7605 39.4345 25.7605Z" stroke="url(#paint1_linear_675_1210)" stroke-width="4" stroke-miterlimit="10"/>
<defs>
<linearGradient id="paint0_linear_675_1210" x1="31.9868" y1="13.8803" x2="46.8822" y2="13.8803" gradientUnits="userSpaceOnUse">
<stop stop-color="#209CFF"/>
<stop offset="1" stop-color="#68E0CF"/>
</linearGradient>
<linearGradient id="paint1_linear_675_1210" x1="25.4052" y1="1.38284" x2="53.4639" y2="1.38284" gradientUnits="userSpaceOnUse">
<stop stop-color="#209CFF"/>
<stop offset="1" stop-color="#68E0CF"/>
</linearGradient>
</defs>
</svg>
