<svg width="344" height="736" viewBox="0 0 344 736" fill="none" xmlns="http://www.w3.org/2000/svg">
<g clip-path="url(#clip0_431_7100)">
<rect width="344" height="736" rx="20" fill="#131B6C"/>
<path d="M402.973 15.0997C402.973 43.3214 405.017 75 373.327 75C341.637 75 282.314 27.0574 271 -6.19181C271 -34.4134 313.904 -36 345.594 -36C377.284 -36 402.973 -13.1219 402.973 15.0997Z" fill="#192277"/>
<path d="M-37.4778 716.622C-36.7063 691.438 -37.5249 663.118 -11.4039 663.918C14.7171 664.718 62.3045 708.998 70.7215 738.955C69.95 764.139 34.5425 764.471 8.42148 763.671C-17.6995 762.871 -38.2493 741.806 -37.4778 716.622Z" fill="#192277"/>
</g>
<defs>
<clipPath id="clip0_431_7100">
<rect width="344" height="736" rx="20" fill="white"/>
</clipPath>
</defs>
</svg>
