<svg width="139" height="41" viewBox="0 0 139 41" fill="none" xmlns="http://www.w3.org/2000/svg">
<path d="M26.1504 24.0272V31.1998H0V25.5395L13.1209 10.9416H0.365276V3.81714H25.615V9.43327L12.4941 24.0272H26.1504Z" fill="white"/>
<path d="M100.036 3.81714V31.1998H90.5926V28.2714C89.5534 29.3791 88.2655 30.2422 86.8278 30.7946C85.3532 31.3691 83.777 31.6607 82.1871 31.6531C78.5288 31.6531 75.6108 30.6087 73.4329 28.5201C71.2551 26.4314 70.1607 23.2998 70.1496 19.1251V3.81714H80.0826V17.5606C80.0826 19.6145 80.4825 21.1121 81.2822 22.0535C82.0833 23.0002 83.2497 23.4696 84.7855 23.4696C85.5087 23.4902 86.2277 23.3572 86.8918 23.0799C87.556 22.8027 88.1491 22.3879 88.6292 21.865C89.6199 20.7952 90.1166 19.1706 90.1194 16.991V3.81714H100.036Z" fill="white"/>
<path d="M139 3.81721V41H129.067V28.7729C127.149 30.6957 124.52 31.6558 121.18 31.6531C118.719 31.6816 116.293 31.081 114.149 29.9121C112.034 28.7432 110.296 27.0294 109.13 24.9619C107.856 22.6743 107.216 20.1062 107.275 17.5085C107.217 14.9109 107.856 12.343 109.13 10.0551C110.296 7.98762 112.034 6.27382 114.149 5.10491C116.291 3.9374 118.713 3.33685 121.172 3.36391C124.9 3.36391 127.688 4.42429 129.536 6.54505V3.81721H139ZM127.552 22.2702C128.659 21.1069 129.212 19.5156 129.212 17.4965C129.212 15.4774 128.659 13.8861 127.552 12.7228C126.994 12.1704 126.327 11.7315 125.59 11.4318C124.854 11.1321 124.063 10.9777 123.264 10.9777C122.465 10.9777 121.674 11.1321 120.938 11.4318C120.201 11.7315 119.535 12.1704 118.976 12.7228C117.869 13.8861 117.316 15.4774 117.316 17.4965C117.316 19.5156 117.869 21.1069 118.976 22.2702C119.535 22.8226 120.201 23.2615 120.938 23.5612C121.674 23.8609 122.465 24.0153 123.264 24.0153C124.063 24.0153 124.854 23.8609 125.59 23.5612C126.327 23.2615 126.994 22.8226 127.552 22.2702Z" fill="white"/>
<path d="M47.2535 26.0691C52.1822 26.0691 56.1778 22.2077 56.1778 17.4443C56.1778 12.681 52.1822 8.81958 47.2535 8.81958C42.3247 8.81958 38.3291 12.681 38.3291 17.4443C38.3291 22.2077 42.3247 26.0691 47.2535 26.0691Z" fill="url(#paint0_linear_431_446)"/>
<path d="M47.2535 32.8887C56.0794 32.8887 63.2343 25.974 63.2343 17.4444C63.2343 8.91467 56.0794 2 47.2535 2C38.4275 2 31.2726 8.91467 31.2726 17.4444C31.2726 25.974 38.4275 32.8887 47.2535 32.8887Z" stroke="url(#paint1_linear_431_446)" stroke-width="4" stroke-miterlimit="10"/>
<defs>
<linearGradient id="paint0_linear_431_446" x1="38.3291" y1="17.4443" x2="56.1778" y2="17.4443" gradientUnits="userSpaceOnUse">
<stop stop-color="#209CFF"/>
<stop offset="1" stop-color="#68E0CF"/>
</linearGradient>
<linearGradient id="paint1_linear_431_446" x1="30.4425" y1="1.1977" x2="64.0645" y2="1.1977" gradientUnits="userSpaceOnUse">
<stop stop-color="#209CFF"/>
<stop offset="1" stop-color="#68E0CF"/>
</linearGradient>
</defs>
</svg>
